<svg width="433" height="340" viewBox="0 0 433 340" fill="none" xmlns="http://www.w3.org/2000/svg">
<path fill-rule="evenodd" clip-rule="evenodd" d="M0 3.34C0 12.062 7.424 32.079 15.256 44.478C28.576 65.56 53.033 87.233 80.044 101.889L87.024 105.677L57.851 106.333C41.806 106.694 28.47 107.197 28.215 107.451C27.479 108.188 32.723 120.68 37.98 130.712C59.129 171.063 103.047 205.219 156 222.498C160.675 224.024 164.661 225.41 164.859 225.578C165.671 226.27 155.963 236.75 148.5 243.237C127.636 261.373 101.747 273.667 72.153 279.49C61.913 281.505 41.827 283.949 35.155 283.991C31.754 284.013 45.904 303.805 56.551 313.918C68.619 325.381 84.173 334.118 99.41 337.99C109.154 340.466 115.282 340.509 120.502 338.138C125.135 336.033 135.769 324.983 147.302 310.289C151.71 304.673 155.63 300.271 156.013 300.508C156.396 300.745 162.274 301.627 169.075 302.469C200.772 306.393 226.469 302.686 251.5 290.577C288.202 272.822 310.192 244.307 325.975 194C336.898 159.188 338.285 155.229 342.794 146C350.987 129.228 363.074 119.536 380.697 115.605C384.656 114.722 389.043 114 390.447 114C393.526 114 393.645 112.78 390.986 108.477C388.213 103.99 381.358 98.574 372.754 94.07C366.04 90.556 365.47 90.002 364.849 86.391C360.4 60.529 333.496 42.416 306.182 46.892C285.559 50.272 274.422 60.661 250.346 98.981L242.192 111.959L241.479 105.817C239.305 87.091 231.181 71.761 215.961 57.67C185.382 29.359 125.973 9.87 49.5 3.064C38.931 2.123 5.695 0 1.539 0C0.461002 0 0 0.999996 0 3.34ZM328.6 82.4C331.497 85.297 332 86.491 332 90.477C332 94.285 331.471 95.683 329.15 98.003C320.619 106.535 306.55 99.122 309.92 87.872C311.486 82.646 316.112 79 321.177 79C324.419 79 325.86 79.66 328.6 82.4ZM394.223 124.021C388.343 125.236 380.478 129.692 376.782 133.901C364.851 147.49 365.772 167.619 378.892 179.99L383.675 184.5L371.79 223.427C361.334 257.672 360.041 262.686 361.044 265.105C362.359 268.282 365.29 269.623 379.135 273.383C391.679 276.79 395.236 276.787 397.927 273.365C402.777 267.2 399.688 262.835 388.096 259.467C383.474 258.125 379.465 256.798 379.186 256.52C378.572 255.905 382.062 244.08 383.036 243.478C383.415 243.243 386.932 243.94 390.85 245.026C399.874 247.526 403.48 247.52 406 245C408.599 242.401 408.644 236.893 406.086 234.578C405.034 233.626 400.421 231.814 395.836 230.552C389.3 228.753 387.565 227.899 387.802 226.595C388.379 223.412 398.179 191.535 399.121 189.773C399.804 188.497 401.277 188 404.375 188C413.639 188 425.678 179.255 430.363 169.122C433.647 162.019 433.364 148.308 429.792 141.5C426.461 135.151 419.787 128.657 414 126.133C408.517 123.741 399.982 122.83 394.223 124.021ZM404.545 140.116C409.961 141.479 415.583 147.263 416.561 152.476C419.067 165.833 405.623 176.186 393.34 170.357C388.087 167.864 385 162.631 385 156.218C385 147.963 388.309 143.079 395.684 140.449C400.4 138.767 399.346 138.806 404.545 140.116Z" fill="#FBFAF6"/>
</svg>
